<?xml version="1.0" encoding="UTF-8" standalone="no"?>
<!-- Created with Inkscape (http://www.inkscape.org/) -->

<svg
   width="300mm"
   height="300mm"
   viewBox="0 0 300 300"
   version="1.1"
   id="svg1"
   sodipodi:docname="logo_vertical_black.svg"
   inkscape:version="1.4 (86a8ad7, 2024-10-11)"
   xmlns:inkscape="http://www.inkscape.org/namespaces/inkscape"
   xmlns:sodipodi="http://sodipodi.sourceforge.net/DTD/sodipodi-0.dtd"
   xmlns="http://www.w3.org/2000/svg"
   xmlns:svg="http://www.w3.org/2000/svg">
  <sodipodi:namedview
     id="namedview1"
     pagecolor="#ffffff"
     bordercolor="#000000"
     borderopacity="0.25"
     inkscape:showpageshadow="2"
     inkscape:pageopacity="0.0"
     inkscape:pagecheckerboard="0"
     inkscape:deskcolor="#d1d1d1"
     inkscape:document-units="mm"
     inkscape:zoom="0.7540625"
     inkscape:cx="567.59221"
     inkscape:cy="566.92913"
     inkscape:window-width="1920"
     inkscape:window-height="1051"
     inkscape:window-x="-9"
     inkscape:window-y="-9"
     inkscape:window-maximized="1"
     inkscape:current-layer="svg1" />
  <defs
     id="defs1" />
  <g
     id="layer5"
     style="display:none">
    <path
       id="path8-7"
       style="display:inline;fill:#ff0000;fill-opacity:1;stroke:none;stroke-width:7.37999;stroke-linejoin:round;stroke-dasharray:none;stroke-opacity:1"
       d="M 55.127285,59.343977 A 120.67549,20.470613 32.404278 0 1 164.07775,110.66386 120.67549,20.470613 32.404278 0 1 252.06462,191.37211 120.67549,20.470613 32.404278 0 1 136.913,141.89813 120.67549,20.470613 32.404278 0 1 48.925605,61.189867 a 120.67549,20.470613 32.404278 0 1 6.20168,-1.84589 z m 18.22163,10.12549 a 107.84996,16.568272 32.681872 0 0 -5.24671,1.33118 A 107.84996,16.568272 32.681872 0 0 147.73404,141.99786 107.84996,16.568272 32.681872 0 0 249.2188,187.8545 107.84996,16.568272 32.681872 0 0 169.58749,116.65729 107.84996,16.568272 32.681872 0 0 73.348915,69.469467 Z" />
    <rect
       style="fill:#5bdc75;fill-opacity:1;stroke:none;stroke-width:2;stroke-linecap:butt;stroke-linejoin:round;stroke-dasharray:none;stroke-opacity:1;paint-order:markers stroke fill"
       id="rect18"
       width="277.1911"
       height="65.993774"
       x="65.973885"
       y="-52.781002"
       transform="rotate(33.137155)" />
    <path
       id="path8-7-3"
       style="display:inline;fill:#ff0000;fill-opacity:1;stroke:none;stroke-width:7.37999;stroke-linejoin:round;stroke-dasharray:none;stroke-opacity:1"
       d="m -9.589788,106.23477 a 120.67549,20.470613 32.404278 0 0 -5.435844,1.75804 120.67549,20.470613 32.404278 0 0 87.987394,80.70825 120.67549,20.470613 32.404278 0 0 115.151638,49.47398 120.67549,20.470613 32.404278 0 0 0.14262,-6.04046 l -2.8484,-1.81281 a 107.84996,16.568272 32.681872 0 1 -0.14004,4.33565 107.84996,16.568272 32.681872 0 1 -101.484778,-45.85663 107.84996,16.568272 32.681872 0 1 -79.63183,-71.1972 107.84996,16.568272 32.681872 0 1 2.35386,-1.12707 z" />
    <path
       id="path8-7-4"
       style="display:inline;fill:#ff0000;fill-opacity:1;stroke:none;stroke-width:7.37999;stroke-linejoin:round;stroke-dasharray:none;stroke-opacity:1"
       d="m -8.888532,106.23756 a 120.67549,20.470613 32.404278 0 0 -6.201688,1.84588 120.67549,20.470613 32.404278 0 0 -0.575159,4.11603 l 22.328351,14.57637 a 107.84996,16.568272 32.681872 0 1 -2.57658,-9.08161 107.84996,16.568272 32.681872 0 1 5.2467,-1.33119 107.84996,16.568272 32.681872 0 1 96.238578,47.18782 107.84996,16.568272 32.681872 0 1 79.63132,71.1972 107.84996,16.568272 32.681872 0 1 -13.72681,-0.3793 l 8.5018,5.55005 a 120.67549,20.470613 32.404278 0 0 8.07082,-1.65313 120.67549,20.470613 32.404278 0 0 -87.98687,-80.70825 120.67549,20.470613 32.404278 0 0 -108.950462,-51.31987 z" />
    <path
       id="path3-6-6"
       style="display:inline;fill:#ffffff;fill-opacity:1;stroke:none;stroke-width:1.32292"
       d="m 94.406088,28.574997 a 5.5480523,5.5480523 0 0 0 -5.54799,5.54798 h -0.005 v 7.27294 h -7.27707 v 5.2e-4 a 5.5480523,5.5480523 0 0 0 -5.5392,5.54746 5.5480523,5.5480523 0 0 0 5.5392,5.54747 v 5.2e-4 h 7.27707 v 7.27294 h 0.005 a 5.5480523,5.5480523 0 0 0 5.54799,5.54798 5.5480523,5.5480523 0 0 0 5.54798,-5.54798 5.5480523,5.5480523 0 0 0 -0.005,-0.18862 v -7.08432 h 7.277072 a 5.5480523,5.5480523 0 0 0 5.54798,-5.54799 5.5480523,5.5480523 0 0 0 -5.54798,-5.54798 h -7.277022 v -7.20783 a 5.5480523,5.5480523 0 0 0 0.005,-0.0651 5.5480523,5.5480523 0 0 0 -5.54798,-5.54798 z" />
    <g
       id="g22"
       transform="translate(81.0282,40.117836)"
       style="display:inline">
      <path
         style="fill:#ff0000;fill-opacity:1;stroke:none;stroke-width:13.1298;stroke-linecap:round;stroke-linejoin:round;stroke-dasharray:none;stroke-opacity:1;paint-order:markers stroke fill"
         d="m 241.84961,27.253906 c -1.68887,0.112881 -3.26278,0.314987 -4.92578,1.146485 -2.21776,1.108875 -10.48026,8.6799 -8.22461,10.935546 1.10953,1.109533 4.74001,1.376722 6.00586,2.642579 1.1357,1.135692 -0.96518,5.152008 0.36328,6.480468 0.24609,0.246089 4.55346,-0.499491 6.78125,-0.964843 2.22779,0.465352 6.53321,1.210932 6.7793,0.964843 1.32846,-1.32846 -0.77047,-5.344776 0.36523,-6.480468 1.26585,-1.265857 4.89633,-1.533045 6.00586,-2.642579 2.25565,-2.255646 -6.0088,-9.826671 -8.22656,-10.935546 -1.663,-0.831498 -3.23496,-1.033604 -4.92383,-1.146485 z"
         id="path22"
         transform="matrix(0.55571331,0,0,0.66804977,56.802264,75.550639)" />
      <path
         style="display:inline;fill:#ff0000;fill-opacity:1;stroke:none;stroke-width:13.1298;stroke-linecap:round;stroke-linejoin:round;stroke-dasharray:none;stroke-opacity:1;paint-order:markers stroke fill"
         d="m 241.84961,27.253906 c -1.68887,0.112881 -3.26278,0.314987 -4.92578,1.146485 -2.21776,1.108875 -10.48026,8.6799 -8.22461,10.935546 1.10953,1.109533 4.74001,1.376722 6.00586,2.642579 1.1357,1.135692 -0.96518,5.152008 0.36328,6.480468 0.24609,0.246089 4.55346,-0.499491 6.78125,-0.964843 2.22779,0.465352 6.53321,1.210932 6.7793,0.964843 1.32846,-1.32846 -0.77047,-5.344776 0.36523,-6.480468 1.26585,-1.265857 4.89633,-1.533045 6.00586,-2.642579 2.25565,-2.255646 -6.0088,-9.826671 -8.22656,-10.935546 -1.663,-0.831498 -3.23496,-1.033604 -4.92383,-1.146485 z"
         id="path22-0"
         transform="matrix(0.55571331,0,0,-0.66804977,56.802264,158.48569)" />
      <path
         style="display:inline;fill:#ff0000;fill-opacity:1;stroke:none;stroke-width:13.1298;stroke-linecap:round;stroke-linejoin:round;stroke-dasharray:none;stroke-opacity:1;paint-order:markers stroke fill"
         d="m 241.84961,27.253906 c -1.68887,0.112881 -3.26278,0.314987 -4.92578,1.146485 -2.21776,1.108875 -10.48026,8.6799 -8.22461,10.935546 1.10953,1.109533 4.74001,1.376722 6.00586,2.642579 1.1357,1.135692 -0.96518,5.152008 0.36328,6.480468 0.24609,0.246089 4.55346,-0.499491 6.78125,-0.964843 2.22779,0.465352 6.53321,1.210932 6.7793,0.964843 1.32846,-1.32846 -0.77047,-5.344776 0.36523,-6.480468 1.26585,-1.265857 4.89633,-1.533045 6.00586,-2.642579 2.25565,-2.255646 -6.0088,-9.826671 -8.22656,-10.935546 -1.663,-0.831498 -3.23496,-1.033604 -4.92383,-1.146485 z"
         id="path22-0-5"
         transform="matrix(0,-0.55571331,-0.66804977,0,232.66882,251.41719)" />
      <path
         style="display:inline;fill:#ff0000;fill-opacity:1;stroke:none;stroke-width:13.1298;stroke-linecap:round;stroke-linejoin:round;stroke-dasharray:none;stroke-opacity:1;paint-order:markers stroke fill"
         d="m 241.84961,27.253906 c -1.68887,0.112881 -3.26278,0.314987 -4.92578,1.146485 -2.21776,1.108875 -10.48026,8.6799 -8.22461,10.935546 1.10953,1.109533 4.74001,1.376722 6.00586,2.642579 1.1357,1.135692 -0.96518,5.152008 0.36328,6.480468 0.24609,0.246089 4.55346,-0.499491 6.78125,-0.964843 2.22779,0.465352 6.53321,1.210932 6.7793,0.964843 1.32846,-1.32846 -0.77047,-5.344776 0.36523,-6.480468 1.26585,-1.265857 4.89633,-1.533045 6.00586,-2.642579 2.25565,-2.255646 -6.0088,-9.826671 -8.22656,-10.935546 -1.663,-0.831498 -3.23496,-1.033604 -4.92383,-1.146485 z"
         id="path22-0-5-0"
         transform="matrix(0,0.55571331,0.66804977,0,149.73376,-17.380863)" />
    </g>
    <path
       style="display:inline;fill:#000000;fill-opacity:1;stroke:#ffffff;stroke-width:31.3931;stroke-linecap:round;stroke-linejoin:round;stroke-dasharray:none;stroke-opacity:1;paint-order:markers stroke fill"
       id="path19-7-84"
       d="m 178.10378,122.45448 c -3.41169,0 -8.94276,-23.187272 -11.35518,-25.599695 -2.41242,-2.412423 -25.5997,-7.943491 -25.5997,-11.355173 0,-3.411682 23.18728,-8.942752 25.5997,-11.355175 2.41242,-2.412424 7.94349,-25.599698 11.35517,-25.599698 3.41169,0 8.94276,23.187274 11.35518,25.599698 2.41242,2.412423 25.5997,7.943491 25.5997,11.355173 0,3.411682 -23.18728,8.942752 -25.5997,11.355175 -2.41242,2.412424 -7.94349,25.599695 -11.35517,25.599695 z"
       transform="matrix(0.15927019,0,0,0.15927019,227.70155,110.35509)" />
  </g>
  <g
     id="layer1"
     style="display:inline;fill:#000000;fill-opacity:1">
    <g
       id="g68"
       style="display:inline;fill:#000000;fill-opacity:1"
       transform="matrix(0.55578391,0,0,0.55578391,-104.78283,167.73222)">
      <g
         id="g1"
         style="fill:#000000;fill-opacity:1">
        <g
           id="g2"
           style="fill:#000000;fill-opacity:1">
          <path
             style="font-weight:bold;font-size:95.2109px;font-family:'Agency FB';-inkscape-font-specification:'Agency FB, Normal';fill:#000000;fill-opacity:1;stroke-width:2.38028"
             d="m 309.13281,137.12628 q 0,6.64803 -6.64803,6.64803 h -22.87293 q -6.46206,0 -6.46206,-6.64803 V 77.712448 q 0,-6.694516 6.60153,-6.694516 h 22.73346 q 6.64803,0 6.64803,6.694516 V 93.240007 H 298.20773 V 80.362361 h -14.17935 v 54.067519 h 14.17935 v -20.36249 h -8.0892 v -9.25145 h 19.01428 z m 45.5599,6.64803 H 343.9071 l -2.18501,-13.80744 h -13.62148 l -2.18502,13.80744 h -10.73912 v -0.18596 l 14.08638,-72.663398 h 11.43646 z m -14.50478,-23.15187 -5.29983,-32.821728 -5.34631,32.821728 z m 64.57418,23.15187 h -10.46018 v -35.89005 q 0,-2.83587 0.65086,-7.903247 l -9.39092,37.145267 h -5.53228 l -9.43741,-37.145267 q 0.65086,5.160357 0.65086,7.903247 v 35.89005 H 360.78286 V 71.017932 h 10.27422 l 11.43647,40.213588 q 0.18596,0.65086 0.27893,3.30077 0,-1.16224 0.27894,-3.30077 l 11.43647,-40.213588 h 10.27422 z m 38.8654,0 H 413.45569 V 71.017932 h 29.89288 v 9.623367 h -19.01429 v 21.245791 h 16.36438 v 9.43741 h -16.36438 v 22.82644 h 19.29323 z"
             id="text1-1-4"
             aria-label="GAME" />
          <path
             id="path68"
             style="baseline-shift:baseline;display:inline;overflow:visible;vector-effect:none;fill:#000000;fill-opacity:1;stroke-linejoin:round;enable-background:accumulate;stop-color:#000000"
             d="m 458.15429,63.681384 c -3.9748,4.38e-4 -7.19683,3.222693 -7.19698,7.197494 v 72.941282 c 1.5e-4,3.9748 3.22218,7.19706 7.19698,7.1975 h 178.33433 c 3.9748,-4.4e-4 7.19683,-3.2227 7.19698,-7.1975 V 70.878878 c -1.5e-4,-3.974801 -3.22218,-7.197056 -7.19698,-7.197494 z m -5.2e-4,7.196977 h 6.41563 l 1.12086,7.19801 7.89823,50.728169 0.27905,4.74183 c 0.031,-1.08476 0.13961,-2.66529 0.32556,-4.74183 l 7.89823,-50.728169 1.12086,-7.19801 h 6.22959 l -1.24333,7.19801 -10.11204,58.546819 -1.24334,7.19749 h -6.09058 l -1.24334,-7.19749 -4.15737,-24.07089 z m 40.02805,0 h 23.61665 v 5.718514 h -17.15451 v 1.479496 25.670269 h 15.62023 v 5.81101 h -15.62023 v 27.06554 1.29346 h 17.43356 v 5.71799 h -23.8957 v -7.01145 -58.546819 z m 33.98397,0 h 24.36027 c 1.51867,0 2.75837,0.480468 3.71915,1.441256 0.96079,0.960786 1.44126,2.200489 1.44126,3.719153 v 2.037601 25.577249 c 0,3.50223 -2.35528,5.25343 -7.06624,5.25343 -0.46489,0 -1.14707,-0.0155 -2.04587,-0.0465 -0.8988,-0.062 -1.54942,-0.093 -1.95233,-0.093 3.3427,9.26053 6.66821,18.55562 9.99112,27.85567 0.83639,2.34085 1.67944,4.66808 2.51458,7.01145 h -6.7877 l -2.435,-7.01145 -11.09338,-31.94689 0.88315,-1.30173 h 11.52953 V 78.076371 76.596875 h -16.5964 v 1.479496 58.546819 7.01145 h -6.46214 v -7.01145 -58.546819 z m 45.55949,0 h 18.31723 c 1.51866,0 2.74285,0.480468 3.67265,1.441256 0.96078,0.960786 1.44125,2.200489 1.44125,3.719153 v 2.037601 14.88488 h -6.46214 v -14.88488 -1.479496 h -15.71376 v 1.479496 13.861686 l 20.17654,24.267773 c 1.3327,1.61164 1.99936,3.4249 1.99936,5.43946 v 14.9779 1.85105 c 0,1.51866 -0.48047,2.75888 -1.44125,3.71966 -0.9298,0.96079 -2.15399,1.44074 -3.67265,1.44074 h -18.31723 c -1.51866,0 -2.77388,-0.47995 -3.76566,-1.44074 -0.96078,-0.96078 -1.44074,-2.201 -1.44074,-3.71966 V 136.62319 120.018 h 6.46163 v 16.60519 1.29346 h 15.71376 V 136.62319 120.5761 L 574.61075,96.308333 c -1.3947,-1.673628 -2.09187,-3.517925 -2.09187,-5.532479 V 78.076371 76.03877 c 0,-1.518664 0.47996,-2.758367 1.44074,-3.719153 0.99178,-0.960788 2.247,-1.441256 3.76566,-1.441256 z m 34.86764,0 h 23.61665 v 5.718514 h -17.15451 v 1.479496 25.670269 h 10.23607 5.38417 v 5.81101 h -5.38417 -10.23607 v 27.06554 1.29346 h 17.43356 v 5.71799 h -23.8957 v -7.01145 -58.546819 z" />
        </g>
      </g>
    </g>
    <g
       id="g41"
       style="display:inline;fill:#000000;fill-opacity:1"
       transform="translate(30.07194,28.513636)">
      <path
         id="path93-8"
         style="fill:#000000;fill-opacity:1;stroke-linejoin:round;paint-order:markers stroke fill"
         d="m 24.564392,22.322152 c -3.023892,-0.03338 -5.106248,0.586414 -6.201689,1.845882 -3.098348,3.562855 2.005407,12.110713 13.658598,23.821802 0.740862,-3.478672 3.322391,-6.266846 6.652307,-7.380945 -1.83703,-3.139761 -2.289198,-5.484344 -1.134297,-6.830074 0.881393,-1.021756 2.643093,-1.468731 5.246708,-1.331185 1.516356,0.106314 3.28011,0.352099 5.312854,0.83044 4.534907,1.041161 10.440817,3.117568 17.282149,5.968111 0.138567,-1.122299 0.508505,-2.172049 1.09244,-3.0887 C 53.796327,30.253613 43.037072,26.14466 34.814412,24.019722 h -5.16e-4 l -0.08682,-0.06046 C 31.08514,23.00468 28.02357,22.507627 25.43669,22.373828 c -0.02981,-0.0015 -0.06802,-0.009 -0.09767,-0.01034 l 0.0078,0.0052 c -0.256856,-0.01247 -0.535463,-0.04163 -0.782381,-0.04651 z m 26.092464,32.260563 c -1.248682,2.419882 -3.438207,4.25424 -6.092134,5.030701 2.098157,1.816072 4.193765,3.631547 6.515364,5.54178 3.887261,3.198499 8.024906,6.4734 12.366171,9.793718 0.147316,-0.05144 0.286764,-0.104895 0.434598,-0.156063 1.742004,-0.602946 3.499909,-1.179278 4.853968,-1.670183 0.677023,-0.245452 1.255762,-0.471413 1.64176,-0.644921 0.09956,-0.04476 0.140849,-0.07916 0.21394,-0.124024 0.04496,-0.07321 0.07964,-0.115624 0.12454,-0.215491 0.01863,-0.04143 0.04945,-0.130459 0.06925,-0.176216 -5.18004,-4.114075 -9.971349,-8.099066 -14.172781,-11.845272 -2.174188,-1.938061 -4.126393,-3.767363 -5.954676,-5.534029 z m 40.421306,32.653304 c -0.746745,0.254419 -1.598103,0.539101 -2.216403,0.763261 -0.677023,0.245452 -1.254728,0.47193 -1.640726,0.645438 -0.09987,0.04489 -0.141765,0.07907 -0.214974,0.124024 -0.0448,0.07302 -0.07987,0.115085 -0.12454,0.214457 -0.173504,0.385998 -0.399469,0.964731 -0.644922,1.64176 -0.06535,0.180241 -0.153975,0.45244 -0.222209,0.645956 6.591312,4.562387 13.338495,9.121165 20.335712,13.605375 l 0.82062,0.51418 c 14.43134,9.21479 28.9748,17.7514 42.72401,25.13438 0.41944,-1.65322 1.25272,-3.14522 2.41484,-4.33049 -11.39652,-6.39194 -23.32535,-13.58754 -35.13843,-21.21834 l -0.0796,-0.0527 C 108.0266,99.062322 99.274294,93.103372 91.078162,87.236019 Z M 204.92186,127.63149 c -0.0819,0.52932 -0.17298,1.0465 -0.25993,1.57148 1.59364,1.51929 3.05969,2.9726 4.39921,4.36097 0.27516,-0.32597 0.57797,-0.6219 0.91002,-0.88987 -1.54426,-1.61294 -3.22717,-3.29346 -5.0493,-5.04258 z m -36.56108,7.17268 c -0.33526,1.56201 -1.08438,2.96093 -2.08876,4.13929 0.93711,0.45869 1.8969,0.94427 2.82102,1.38803 9.88316,4.7593 18.81464,8.56447 26.43611,11.26287 4.83483,1.70364 9.02731,2.89999 12.62714,3.65766 0.68543,0.14427 1.34686,0.27111 1.98541,0.38086 0.002,3.7e-4 0.005,0.001 0.007,0.002 0.40272,0.0691 0.78301,0.12186 1.16686,0.17725 7.2e-4,1e-4 0.001,-1.1e-4 0.002,0 0.8661,0.12494 1.68762,0.21864 2.45618,0.27337 0.001,9e-5 0.003,4.2e-4 0.004,5.1e-4 0.47859,0.034 0.95409,0.0657 1.39423,0.0724 0.37621,0.006 0.73947,0.003 1.08727,-0.0114 1.36269,-0.0559 2.53083,-0.24749 3.4463,-0.61133 3.8e-4,-1.5e-4 6.6e-4,-3.7e-4 10e-4,-5.2e-4 0.29379,-0.11683 0.56376,-0.24974 0.81028,-0.39842 0.0782,-0.0472 0.16018,-0.0917 0.23358,-0.14211 2.1e-4,-1.5e-4 3.1e-4,-3.8e-4 5.2e-4,-5.2e-4 0.28187,-0.1935 0.5404,-0.40245 0.75086,-0.64337 0.18918,-0.2198 0.35044,-0.45413 0.48989,-0.73071 l -0.0114,-0.008 c 1.13918,-2.27672 -0.16561,-6.03831 -3.59255,-10.9554 -0.36357,0.32267 -0.76162,0.5995 -1.18907,0.83664 2.09094,3.39536 2.67085,5.92612 1.45727,7.3396 -0.10062,0.1111 -0.22363,0.20739 -0.34623,0.30386 -0.26157,0.20713 -0.58622,0.37095 -0.94206,0.51315 -0.24575,0.0982 -0.53843,0.16351 -0.82837,0.23099 -3.47658,0.80919 -10.05519,-0.54637 -19.29908,-3.9672 -7.9971,-2.94473 -17.87539,-7.45864 -28.87938,-13.10928 z m 42.46976,16.99948 c 0.0235,0.004 0.0495,0.01 0.0729,0.0134 -0.0233,-0.004 -0.0495,-0.01 -0.0729,-0.0134 z m 1.61231,0.20206 c 0.30018,0.0306 0.5933,0.0561 0.87488,0.0734 -0.27965,-0.0161 -0.5765,-0.044 -0.87488,-0.0734 z" />
      <path
         d="m 72.789355,35.147209 c -2.761259,-2.03e-4 -4.999897,2.238204 -5.000211,4.999694 6e-6,0.641001 0.121823,1.25323 0.341581,1.816427 2.337947,-1.882228 5.226216,-3.320664 9.027356,-4.248319 -0.854604,-1.531638 -2.49038,-2.567941 -4.368726,-2.567802 z"
         style="fill:#000000;fill-opacity:1;stroke-linecap:round;stroke-linejoin:round;paint-order:markers stroke fill"
         id="path91-5" />
      <path
         d="m 86.116191,39.060665 c -18.34016,0.738442 -18.847176,8.085372 -27.884603,19.148702 0.0066,0.0059 0.01201,0.01118 0.0186,0.01705 v 5.17e-4 5.17e-4 5.16e-4 5.17e-4 c 4.025883,3.589676 8.556041,7.376434 13.448792,11.282516 0.41694,-1.195753 0.850674,-2.479187 1.331185,-3.867465 0.602948,-1.742002 1.223467,-3.45989 1.886706,-4.875671 0.33162,-0.70789 0.659113,-1.336665 1.116728,-1.942517 0.45762,-0.605851 1.108824,-1.556494 2.764689,-1.556494 1.655859,0 2.307069,0.950643 2.764689,1.556494 0.457621,0.605852 0.785114,1.234627 1.116728,1.942517 0.663239,1.415781 1.283759,3.133669 1.886706,4.875671 0.602943,1.742004 1.179277,3.498878 1.670183,4.852934 0.245453,0.677028 0.471418,1.255763 0.644922,1.64176 0.04484,0.09975 0.07964,0.142325 0.12454,0.215491 0.07316,0.04492 0.115219,0.07918 0.214974,0.124024 0.385998,0.173508 0.963703,0.399469 1.640726,0.644921 1.354059,0.490905 3.111965,1.067237 4.853968,1.670183 1.742003,0.602945 3.459892,1.223987 4.875671,1.887223 0.70789,0.331619 1.337183,0.658592 1.943035,1.116211 0.60585,0.457619 1.55598,1.108826 1.55598,2.764689 0,1.655864 -0.95013,2.30707 -1.55598,2.764689 -0.605852,0.45762 -1.235145,0.78511 -1.943035,1.116728 -1.344494,0.629843 -2.966489,1.218938 -4.617806,1.793172 7.563531,5.377946 15.605681,10.847145 24.034191,16.3034 l 0.004,0.002 0.58808,0.38085 0.004,0.004 c 1.02725,0.66355 2.05003,1.29764 3.0763,1.95285 17.86828,0.56528 21.5809,-0.16576 34.36431,17.69401 0.25757,0.35984 0.51078,0.7005 0.76843,1.0604 0.72439,-0.19207 1.47901,-0.30543 2.26343,-0.30541 4.95628,-1.5e-4 9.02369,3.87824 9.42268,8.73797 10.21428,5.27321 19.56763,9.5994 27.17302,12.5514 0.87092,0.32667 1.49809,0.57718 2.46546,0.92588 5.12408,-14.66761 7.47868,-39.18334 5.32063,-53.736324 -3.72798,-25.140021 -11.54469,-21.517284 -21.04058,-32.773193 -9.73534,-11.539734 -9.72145,-19.215659 -28.52953,-19.972941 -6.06453,-0.244181 -24.37504,6.330259 -33.88682,6.307108 -9.51177,0.02315 -27.820222,-6.551289 -33.884752,-6.307108 z m 75.083269,16.712158 c 2.2745,0 2.99554,1.013631 3.61425,1.614372 0.61872,0.600741 1.06999,1.193872 1.53066,1.842781 0.92132,1.29782 1.81022,2.812306 2.67684,4.342371 0.86661,1.530065 1.69589,3.06492 2.36264,4.24987 0.33338,0.592475 0.62836,1.099698 0.83871,1.437121 0.0461,0.07391 0.0734,0.103084 0.11731,0.162781 0.0602,0.04444 0.0899,0.07317 0.16485,0.119889 0.33742,0.210359 0.84516,0.504819 1.43763,0.838192 1.18496,0.666747 2.71929,1.496031 4.24936,2.362647 1.53006,0.866616 3.04506,1.755513 4.34288,2.676839 0.64891,0.460663 1.24204,0.91194 1.84279,1.530656 0.60074,0.618715 1.61385,1.339755 1.61385,3.614249 0,2.274495 -1.01311,2.995535 -1.61385,3.61425 -0.60075,0.618716 -1.19388,1.069993 -1.84279,1.530656 -1.29782,0.921327 -2.81282,1.809189 -4.34288,2.675806 -1.53007,0.866618 -3.0644,1.696935 -4.24936,2.36368 -0.59247,0.333375 -1.10021,0.628347 -1.43763,0.838708 -0.0745,0.04643 -0.10382,0.07412 -0.16382,0.118339 -0.0442,0.06 -0.0719,0.08934 -0.11834,0.163815 -0.21035,0.33742 -0.50533,0.844133 -0.83871,1.436604 -0.66675,1.184955 -1.49603,2.720321 -2.36264,4.250387 -0.86662,1.530066 -1.75552,3.044034 -2.67684,4.341854 -0.46067,0.64891 -0.91194,1.24204 -1.53066,1.84278 -0.61871,0.60074 -1.33975,1.61541 -3.61425,1.61541 -2.2745,0 -2.99553,-1.01467 -3.61425,-1.61541 -0.61872,-0.60074 -1.06999,-1.19387 -1.53065,-1.84278 -0.92133,-1.29782 -1.81022,-2.811788 -2.67684,-4.341854 -0.86661,-1.530066 -1.6959,-3.065432 -2.36265,-4.250387 -0.33337,-0.592471 -0.62835,-1.099184 -0.83871,-1.436604 -0.0464,-0.07448 -0.0741,-0.103816 -0.11834,-0.163815 -0.06,-0.04422 -0.0893,-0.07192 -0.16381,-0.118339 -0.33743,-0.210361 -0.84361,-0.505333 -1.43609,-0.838708 -1.18495,-0.666745 -2.72084,-1.497062 -4.2509,-2.36368 -1.53006,-0.866616 -3.04352,-1.75448 -4.34134,-2.675806 -0.64891,-0.460663 -1.24204,-0.91194 -1.84278,-1.530656 -0.60074,-0.618715 -1.61541,-1.339755 -1.61541,-3.61425 0,-2.274494 1.01467,-2.995534 1.61541,-3.614249 0.60074,-0.618716 1.19387,-1.069993 1.84278,-1.530656 1.29782,-0.921327 2.81128,-1.810223 4.34134,-2.676839 1.53006,-0.866616 3.06595,-1.6959 4.2509,-2.362647 0.59248,-0.333373 1.09866,-0.627833 1.43609,-0.838192 0.0749,-0.04672 0.10461,-0.07545 0.16485,-0.119889 0.044,-0.0597 0.0712,-0.08887 0.1173,-0.162781 0.21036,-0.337423 0.50534,-0.844646 0.83871,-1.437121 0.66675,-1.18495 1.49604,-2.719805 2.36265,-4.24987 0.86662,-1.530065 1.75551,-3.044551 2.67684,-4.342371 0.46066,-0.64891 0.91193,-1.24204 1.53065,-1.842781 0.61872,-0.600741 1.33975,-1.614372 3.61425,-1.614372 z M 49.05437,66.714274 c -5.540469,4.20628 -9.978988,8.036027 -12.50828,25.092525 -3.235211,21.816921 3.647516,66.106341 14.845605,65.879181 7.568739,-0.15353 20.145706,-17.75707 32.568555,-35.1131 8.185488,-11.43598 12.60239,-15.2404 19.40812,-16.65015 -6.276304,-4.03737 -12.354147,-8.090031 -18.220079,-12.136207 -0.196579,0.575282 -0.371782,1.083854 -0.581877,1.690853 -0.602947,1.742003 -1.223467,3.46092 -1.886706,4.876704 -0.331614,0.70789 -0.659107,1.33615 -1.116728,1.942 -0.45762,0.60585 -1.10883,1.55701 -2.764689,1.55701 -1.655865,0 -2.307069,-0.95116 -2.764689,-1.55701 -0.457615,-0.60585 -0.785108,-1.23411 -1.116728,-1.942 -0.663239,-1.415784 -1.283758,-3.134701 -1.886706,-4.876704 -0.602943,-1.742003 -1.179277,-3.498364 -1.670183,-4.852417 -0.245453,-0.677029 -0.471412,-1.255762 -0.644922,-1.64176 -0.04462,-0.09927 -0.07872,-0.141478 -0.123506,-0.214457 -0.07329,-0.04502 -0.11491,-0.07904 -0.214974,-0.124024 -0.385998,-0.173508 -0.964737,-0.399986 -1.64176,-0.645438 -1.354059,-0.490905 -3.111964,-1.06827 -4.853968,-1.671216 -1.742003,-0.602946 -3.459892,-1.222436 -4.875671,-1.885673 -0.70789,-0.331618 -1.336149,-0.659108 -1.942,-1.116728 -0.605851,-0.457619 -1.557011,-1.108825 -1.557011,-2.764689 0,-1.655863 0.95116,-2.30707 1.557011,-2.764689 0.605851,-0.457619 1.23411,-0.784592 1.942,-1.116211 0.513473,-0.240542 1.091473,-0.471597 1.672766,-0.701766 C 56.798126,72.985294 53.052606,70.015455 49.492069,67.085828 49.335926,66.957686 49.20934,66.841925 49.05437,66.714274 Z M 172.6706,144.76997 c 6.23106,7.53137 11.83481,12.83271 15.94166,12.91601 2.03529,0.0413 3.92566,-1.40237 5.641,-3.90002 -6.39573,-2.28398 -13.6678,-5.33527 -21.58266,-9.01599 z"
         style="fill:#000000;fill-opacity:1;stroke-linecap:round;paint-order:markers stroke fill"
         id="path89-7" />
      <path
         d="m 78.798291,59.768962 c -1.919513,0 -5.031458,13.045953 -6.388757,14.403255 -1.3573,1.357301 -14.403256,4.469243 -14.403256,6.388757 0,1.919514 13.045956,5.031456 14.403256,6.388757 1.357299,1.357302 4.469238,14.403259 6.388757,14.403259 1.919513,0 5.031458,-13.045957 6.388757,-14.403259 1.3573,-1.357301 14.403256,-4.469243 14.403256,-6.388757 0,-1.919514 -13.045956,-5.031456 -14.403256,-6.388757 C 83.829749,72.814915 80.71781,59.768962 78.798291,59.768962 Z"
         style="fill:#000000;fill-opacity:1;stroke-linecap:round;stroke-linejoin:round;paint-order:markers stroke fill"
         id="path84-6" />
      <path
         d="m 159.0766,125.82901 c -3.86589,-1.6e-4 -6.99994,3.13389 -7.00009,7.00009 1.5e-4,3.86621 3.1342,7.00026 7.00009,7.00009 3.86568,-1.2e-4 6.99942,-3.13409 6.99957,-7.00009 -1.5e-4,-3.866 -3.13389,-6.99997 -6.99957,-7.00009 z"
         style="fill:#000000;fill-opacity:1;stroke-linecap:round;stroke-linejoin:round;paint-order:markers stroke fill"
         id="path82-1" />
      <path
         d="m 214.05774,133.6921 c -2.24966,-4e-5 -4.07344,1.82351 -4.07366,4.07313 -6e-5,2.24983 1.8238,4.0737 4.07366,4.07366 2.24985,4e-5 4.07372,-1.82383 4.07365,-4.07366 -2.2e-4,-2.24962 -1.824,-4.07317 -4.07365,-4.07313 z"
         style="fill:#000000;fill-opacity:1;stroke-linecap:round;stroke-linejoin:round;paint-order:markers stroke fill"
         id="path80-8" />
      <path
         d="m 41.798999,42.555542 c -4.14179,-1.5e-5 -7.499474,3.357669 -7.499801,7.499801 4.1e-5,4.142333 3.357809,7.500332 7.499801,7.500317 4.141992,1.5e-5 7.49976,-3.357984 7.499801,-7.500317 -3.27e-4,-4.142132 -3.358011,-7.499816 -7.499801,-7.499801 z"
         style="fill:#000000;fill-opacity:1;stroke-linecap:round;stroke-linejoin:round;paint-order:markers stroke fill"
         id="path78-9" />
      <path
         d="m 161.19946,60.031995 a 6.2014938,6.2014938 0 0 0 -6.20117,6.201688 6.2014938,6.2014938 0 0 0 6.20117,6.201689 6.2014938,6.2014938 0 0 0 6.20169,-6.201689 6.2014938,6.2014938 0 0 0 -6.20169,-6.201688 z m -14.33091,14.330908 a 6.2014938,6.2014938 0 0 0 -6.20117,6.201688 6.2014938,6.2014938 0 0 0 6.20117,6.201172 6.2014938,6.2014938 0 0 0 6.20169,-6.201172 6.2014938,6.2014938 0 0 0 -6.20169,-6.201688 z m 28.66182,0 a 6.2014938,6.2014938 0 0 0 -6.20169,6.201688 6.2014938,6.2014938 0 0 0 6.20169,6.201172 6.2014938,6.2014938 0 0 0 6.20169,-6.201172 6.2014938,6.2014938 0 0 0 -6.20169,-6.201688 z m -14.33091,14.330908 a 6.2014938,6.2014938 0 0 0 -6.20117,6.201689 6.2014938,6.2014938 0 0 0 6.20117,6.20117 6.2014938,6.2014938 0 0 0 6.20169,-6.20117 6.2014938,6.2014938 0 0 0 -6.20169,-6.201689 z"
         style="baseline-shift:baseline;display:inline;overflow:visible;vector-effect:none;fill:#000000;fill-opacity:1;paint-order:markers stroke fill;enable-background:accumulate;stop-color:#000000"
         id="path75-2" />
    </g>
  </g>
</svg>
